<?xml version="1.0" encoding="UTF-8"?><svg id="a" xmlns="http://www.w3.org/2000/svg" width="400" height="700" viewBox="0 0 400 700"><path d="M173.68,159.86c-.74,0-1.43-.23-2.01-.66-.8-.61-1.27-1.54-1.32-2.62-.05-1.01.29-2.04.94-2.91.65-.86,1.55-1.46,2.54-1.69.54-.12,1.08.21,1.2.75.13.54-.21,1.08-.75,1.2-.53.12-1.03.46-1.4.95-.37.49-.56,1.06-.53,1.61.02.48.21.87.53,1.12.32.24.75.32,1.22.21.53-.12,1.03-.46,1.4-.95.27-.35.44-.76.51-1.16.09-.54.6-.92,1.15-.83.55.09.92.6.83,1.15-.12.73-.42,1.44-.89,2.05-.65.86-1.55,1.46-2.54,1.69-.29.07-.59.1-.87.1Z" fill="#ffc709"/><path d="M227.04,159.86c-.29,0-.58-.03-.87-.1-.99-.23-1.89-.83-2.54-1.69-.46-.61-.77-1.32-.89-2.05-.09-.55.28-1.06.83-1.15.55-.09,1.06.28,1.15.83.07.41.24.81.51,1.16.37.49.87.83,1.4.95.46.11.9.04,1.22-.21.32-.24.51-.64.53-1.11.03-.55-.16-1.12-.53-1.61-.37-.49-.87-.83-1.4-.95-.54-.13-.87-.66-.75-1.2s.67-.87,1.2-.75c.99.23,1.89.83,2.54,1.69.65.86.98,1.89.94,2.9-.05,1.08-.52,2.01-1.33,2.62-.58.44-1.27.66-2.01.66Z" fill="#ffc709"/><path d="M306.15,372.35c-.53-.61-.55-2.24-.05-3.63s.51-3.29.03-4.22-.99-1.83-1.13-1.99-.14-.97,0-1.8-.96-3.22-2.45-5.3-4.2-4.78-6.03-5.98-6-5.3-9.26-9.1-6.34-11.99-6.83-18.21l-2.44-30.8c-.49-6.22-3.26-13.57-6.14-16.33s-6.22-10.04-7.41-16.16l-4.65-23.89c-1.19-6.12-1.96-16.23-1.7-22.46l.02-.52c.25-6.23-1.67-14.48-4.28-18.33s-9.67-8.33-15.69-9.95l-18.87-5.08c-6.02-1.62-10.83-4.18-10.68-5.69s2.39-3.29,4.99-3.94,5.03-3.93,5.4-7.29.72-6.27.76-6.49l.74.05c4.1.29,7.41-3.48,8.08-8.67.65-5.05-.13-8.66-4.24-8.95l-.55-.04c-.65.16-1.37-.52-1.61-1.52s-.25-2.95-.03-4.34v-1.31c0-5.56-2.36-10.61-6.21-14.33-3.99-3.86-4.69-4-4.69-4-6.1-1.29-11.09-2.35-11.09-2.35s-.05,0-.1,0h-.1c-.06,0-.1,0-.1,0s-4.99,1.06-11.09,2.35c0,0-.69.15-4.69,4-3.85,3.72-6.21,8.76-6.21,14.33v1.31c.21,1.39.34,3.45.29,4.59s-.64,1.93-1.29,1.77l-.55.04c-4.1.29-4.6,3.88-4.24,8.95.36,5.08,3.98,8.96,8.08,8.67h.1c.06-.01.41,2.69.78,6.01s2.8,6.56,5.4,7.22,4.84,2.43,4.99,3.94-4.66,4.07-10.68,5.69l-18.87,5.08c-6.02,1.62-13.08,6.1-15.69,9.95s-4.53,12.1-4.28,18.33l.02.52c.25,6.23-.51,16.34-1.7,22.46l-4.65,23.89c-1.19,6.12-4.53,13.39-7.41,16.16s-5.65,10.11-6.14,16.33l-2.44,30.8c-.49,6.22-3.57,14.41-6.83,18.21s-7.43,7.89-9.26,9.1-4.54,3.9-6.03,5.98-2.59,4.47-2.45,5.3.14,1.64,0,1.8-.65,1.06-1.13,1.99-.46,2.84.03,4.22.47,3.02-.05,3.63-.72,1.99-.42,3.08,1.28,1.5,2.19.92,3.66-3.15,6.12-5.71,4.56-4.41,4.67-4.12.22.52.24.51-1.46,3.42-3.29,7.62-2.09,7.5-.57,7.32,5.11-4.29,7.99-9.12,6.36-9.52,7.74-10.41,1.68.37.66,2.8-.87,5.87.34,7.64,3.62-1.24,5.36-6.68,3-10.48,2.81-11.2.05-1.56.54-1.87.74-4.26.57-8.77,1.63-12.91,4.02-18.67l15.92-38.38c2.39-5.76,5.19-15.51,6.22-21.65l5.07-30.16c1.03-6.15,2.14-6.09,2.45.14l1.32,26.18c.31,6.23,1.02,13.65,1.56,16.49s-1.81,12.61-3.01,15.79-3.46,9.86-5.03,14.84-2.15,23.51-1.8,29.74l3.09,55.31c.35,6.23.57,16.37.49,22.55s-1.31,16.2-2.72,22.27l-1.73,7.39c-1.42,6.07-2.13,16.12-1.58,22.34l5.97,67.81c.55,6.21.9,11.33.78,11.38s-1.21,2.05-2.42,4.45-6.07,7.7-10.79,11.77l-2.16,1.86c-4.72,4.07-9.43,8.01-10.46,8.76s-2.09,2.53-2.37,3.97.94,3.43,2.69,4.44,6.39,3.05,10.3,4.56,10.58-.25,14.82-3.9,10.63-6.29,14.21-5.85,7.61-.08,8.96-1.16,1.58-6.99.51-13.13l-2.08-11.99c-1.07-6.14-2.06-11.13-2.21-11.07s.42-4.95,1.26-11.13l6.26-46.16c.84-6.18.54-16.24-.67-22.36l-1.25-6.35c-1.2-6.12-1.21-16.13,0-22.25l13.4-68.08c1.2-6.12,3.17-6.12,4.38,0l13.4,68.08c1.2,6.12,1.2,16.13,0,22.25l-1.25,6.35c-1.2,6.12-1.51,16.18-.67,22.36l6.26,46.16c.84,6.18,1.4,11.19,1.26,11.13s-1.14,4.93-2.21,11.07l-2.09,11.99c-1.07,6.14-.84,12.05.51,13.13s5.38,1.6,8.96,1.16,9.97,2.19,14.21,5.85,10.91,5.41,14.82,3.9,8.77-3.56,10.8-4.56,3.47-3,3.19-4.44-1.57-3.22-2.87-3.97-6.23-4.68-10.96-8.76l-2.16-1.86c-4.72-4.07-9.58-9.37-10.79-11.77s-2.3-4.4-2.42-4.45.23-5.17.78-11.38l5.97-67.81c.55-6.21-.45-16.19-2.21-22.17l-2.27-7.72c-1.76-5.98-2.85-10.85-2.43-10.81s.77-5.02.75-11.23.32-16.39.75-22.61l3.72-54.43c.42-6.22.33-15.72-.21-21.12s-5.47-21.17-6.92-24.36-2.76-8.05-2.92-10.81.71-15.24,1.02-21.47l1.32-26.18c.31-6.23,1.42-6.29,2.45-.14l5.07,30.16c1.03,6.15,3.83,15.89,6.22,21.65l15.92,38.38c2.39,5.76,4.2,14.16,4.02,18.67s.08,8.45.57,8.77.73,1.16.54,1.87,1.07,5.75,2.81,11.2,4.15,8.45,5.36,6.68,1.36-5.2.34-7.64-.72-3.69.66-2.8,4.86,5.58,7.74,10.41,6.47,8.94,7.99,9.12,1.26-3.11-.57-7.32-3.31-7.64-3.29-7.62.13-.22.24-.51,2.21,1.56,4.67,4.12,5.21,5.13,6.12,5.71,1.89.17,2.19-.92.11-2.47-.42-3.08ZM180.34,155.59v.08c-.1-.03-.28-.06,0-.08Z" fill="#dfbb98"/><path d="M252.14,589.06c-4,0-8.85-1.76-12.24-4.68-3.99-3.45-10.14-6.01-13.43-5.61-3.36.41-7.9.07-9.7-1.37-2.14-1.71-1.69-9.36-.87-14.08l2.08-11.99c1.3-7.48,1.86-10.1,2.21-11.09-.01-.68-.41-4.42-1.27-10.81l-6.26-46.17c-.85-6.29-.55-16.46.68-22.69l1.25-6.35c1.19-6.03,1.19-15.83,0-21.86l-13.4-68.08c-.48-2.42-.97-3.33-1.21-3.65-.24.32-.73,1.24-1.21,3.65l-13.4,68.08c-1.19,6.03-1.19,15.84,0,21.86l1.25,6.35c1.23,6.23,1.53,16.4.68,22.69l-6.26,46.16c-.87,6.39-1.26,10.13-1.27,10.81.36.99.91,3.61,2.21,11.09l2.08,11.99c.82,4.72,1.27,12.37-.87,14.08-1.81,1.45-6.35,1.79-9.7,1.37-3.29-.39-9.44,2.17-13.43,5.61-4.5,3.88-11.6,5.71-15.83,4.08-3.96-1.53-8.65-3.6-10.44-4.62-2.14-1.22-3.53-3.63-3.18-5.49.32-1.69,1.54-3.7,2.77-4.59,1-.72,5.75-4.71,10.39-8.71l2.16-1.86c4.57-3.94,9.41-9.19,10.55-11.46,1.31-2.59,1.95-3.78,2.33-4.35-.01-.99-.27-4.96-.8-10.94l-5.97-67.81c-.56-6.32.16-16.48,1.61-22.65l1.73-7.39c1.41-6.03,2.62-15.92,2.7-22.06.08-6.17-.14-16.26-.49-22.48l-3.09-55.31c-.32-5.8.18-24.79,1.84-30.09,1.57-5,3.84-11.68,5.04-14.89,1.22-3.24,3.45-12.72,2.97-15.25-.55-2.89-1.26-10.35-1.58-16.63l-1.32-26.19c-.04-.72-.08-1.31-.13-1.8-.1.48-.22,1.07-.34,1.77l-5.07,30.17c-1.05,6.23-3.87,16.04-6.29,21.87l-15.92,38.38c-2.35,5.66-4.12,13.85-3.95,18.24.23,5.81-.11,9.06-1.02,9.65-.07.06-.21.42-.11.77.42,1.54-2.49,10.72-2.82,11.76-.72,2.24-2.66,7.49-5.2,7.86-.75.11-1.46-.23-1.93-.92-1.4-2.05-1.59-5.83-.44-8.59.23-.54.36-.96.44-1.28-1.35,1.23-4.33,5.2-7.05,9.79-2.2,3.71-6.34,9.32-8.73,9.6-.65.07-1.24-.17-1.62-.68-1.37-1.84.54-6.61,1.15-8.03.91-2.09,1.67-3.84,2.22-5.12-.62.59-1.37,1.33-2.21,2.2-2.24,2.33-5.2,5.16-6.3,5.86-.69.44-1.49.54-2.19.27-.73-.28-1.27-.92-1.5-1.77-.39-1.42-.12-3.14.63-4,.17-.21.32-1.36-.13-2.63-.6-1.67-.59-3.83.02-5.02.13-.26.75-1.45,1.12-2,.01-.2,0-.64-.09-1.17-.26-1.52,1.6-4.63,2.62-6.05,1.55-2.17,4.38-4.97,6.3-6.24,1.74-1.14,5.88-5.23,9.05-8.91,3.1-3.61,6.12-11.69,6.59-17.64l2.44-30.8c.51-6.44,3.4-14.06,6.45-16.97,2.72-2.61,5.98-9.76,7.12-15.63l4.65-23.89c1.18-6.07,1.94-16.04,1.69-22.23l-.02-.52c-.26-6.43,1.73-14.92,4.45-18.93,2.73-4.03,10.02-8.67,16.26-10.35l18.87-5.08c6.22-1.67,9.73-3.92,9.95-4.7-.09-.78-1.74-2.37-4.24-3-3.03-.76-5.73-4.31-6.14-8.08-.27-2.45-.49-4.19-.62-5.11-4.31-.19-7.97-4.31-8.34-9.61-.22-3.16-.07-5.16.51-6.69.77-2.04,2.34-3.16,4.66-3.33l.55-.04s.09,0,.14,0c.08-.12.2-.4.22-.82.05-1.06-.07-3.07-.28-4.38,0-.05-.01-.1-.01-.15v-1.31c0-5.64,2.31-10.98,6.52-15.04,4.2-4.06,4.93-4.21,5.17-4.26,5.98-1.27,10.9-2.31,11.08-2.35h0c.15-.03.28-.03.36-.02.1,0,.24,0,.39.03h0c.18.04,5.09,1.08,11.08,2.35.24.05.97.21,5.17,4.26,4.2,4.06,6.52,9.4,6.52,15.04v1.31c0,.05,0,.1-.01.15-.19,1.24-.18,3.09.02,3.96.12.51.39.75.47.77.1-.03.13-.03.24-.03l.55.04c1.69.12,3,.74,3.91,1.85,1.36,1.67,1.76,4.28,1.25,8.22-.75,5.76-4.5,9.74-8.95,9.55-.13,1.09-.37,3.11-.64,5.54-.42,3.8-3.12,7.38-6.15,8.15-2.5.63-4.16,2.21-4.24,3.07.21.71,3.72,2.96,9.95,4.63l18.87,5.08c6.24,1.68,13.53,6.32,16.26,10.35,2.71,4.01,4.71,12.5,4.45,18.93l-.02.52c-.25,6.18.5,16.15,1.69,22.23l4.65,23.89c1.14,5.87,4.4,13.02,7.12,15.63,3.05,2.92,5.94,10.53,6.45,16.97l2.44,30.8c.47,5.95,3.49,14.03,6.59,17.64,3.17,3.69,7.31,7.77,9.05,8.91,1.92,1.26,4.74,4.06,6.3,6.24,1.02,1.43,2.88,4.53,2.62,6.05-.09.54-.1.97-.09,1.17.37.54.98,1.73,1.12,2,.61,1.19.62,3.35.02,5.02-.45,1.27-.3,2.42-.13,2.63.75.86,1.02,2.58.63,3.99-.23.84-.78,1.49-1.5,1.77-.7.27-1.5.17-2.19-.27-1.1-.7-4.07-3.53-6.3-5.86-.84-.88-1.58-1.61-2.21-2.2.56,1.3,1.32,3.05,2.23,5.12.62,1.42,2.52,6.18,1.15,8.03-.38.51-.97.75-1.62.68-2.39-.28-6.53-5.9-8.73-9.6-2.73-4.58-5.7-8.56-7.05-9.79.08.32.21.74.44,1.28,1.16,2.76.96,6.53-.44,8.59-.48.7-1.18,1.03-1.93.92-2.54-.37-4.49-5.62-5.2-7.86-.33-1.04-3.24-10.22-2.82-11.76.1-.35-.04-.71-.12-.78-.9-.58-1.25-3.83-1.02-9.64.17-4.4-1.6-12.58-3.94-18.24l-15.92-38.38c-2.42-5.83-5.24-15.64-6.29-21.87l-5.07-30.17c-.12-.71-.23-1.29-.34-1.77-.05.49-.09,1.08-.13,1.8l-1.32,26.19c-.09,1.8-.23,4.13-.37,6.59-.36,6.03-.76,12.86-.65,14.77.15,2.62,1.45,7.41,2.83,10.46,1.41,3.11,6.44,19.1,7.01,24.67.55,5.45.65,15,.22,21.28l-3.72,54.43c-.42,6.22-.76,16.33-.75,22.54.01,6.62-.27,10.54-.84,11.69.07.99.85,4.54,2.47,10.07l2.27,7.72c1.8,6.1,2.8,16.21,2.25,22.54l-5.97,67.81c-.53,5.98-.79,9.96-.8,10.94.38.57,1.03,1.76,2.33,4.35,1.15,2.27,5.98,7.52,10.55,11.46l2.16,1.86c5.09,4.39,9.7,8.02,10.8,8.65,1.55.89,3.03,2.93,3.35,4.65.36,1.89-1.28,4.31-3.73,5.52-2.05,1.01-6.94,3.08-10.89,4.6-1.05.4-2.28.6-3.6.6ZM227.19,576.73c3.95,0,9.87,2.55,14.03,6.14,3.93,3.39,10.25,5.09,13.81,3.73,3.9-1.5,8.71-3.53,10.72-4.52,1.72-.85,2.82-2.47,2.65-3.35-.22-1.15-1.33-2.69-2.38-3.29-1.54-.88-6.86-5.2-11.11-8.87l-2.16-1.86c-4.9-4.22-9.75-9.53-11.03-12.08-1.07-2.12-1.89-3.62-2.18-4.11-.57-.4-.48-1.75.44-12.26l5.97-67.81c.54-6.12-.44-15.9-2.17-21.8l-2.27-7.72c-3.14-10.66-2.58-11.34-2.29-11.7.02-.03.05-.05.07-.08.22-.94.51-4.64.5-10.53-.01-6.25.32-16.42.75-22.68l3.72-54.43c.42-6.19.33-15.59-.21-20.95-.53-5.28-5.49-21.09-6.84-24.04-1.49-3.28-2.84-8.29-3.01-11.17-.12-2.03.29-8.92.65-15,.15-2.46.28-4.78.37-6.57l1.32-26.19c.21-4.16.69-5.59,1.9-5.66,1.2-.09,1.85,1.29,2.54,5.4l5.07,30.17c1.03,6.1,3.79,15.72,6.16,21.44l15.92,38.38c2.44,5.89,4.28,14.45,4.1,19.09-.18,4.56.1,7.36.31,8.04.72.61,1.04,1.78.76,2.83-.03.59.93,4.79,2.8,10.63,1.48,4.63,3.05,6.32,3.54,6.48,0-.01.02-.03.04-.06,1.02-1.5,1.14-4.56.24-6.69-.87-2.08-.91-3.47-.1-4.14.33-.28,1.07-.64,2.23.11,1.7,1.09,5.43,6.32,8.06,10.74,3.06,5.15,6.07,8.17,7.08,8.59.16-.67-.08-2.76-1.44-5.88-.91-2.1-1.74-4-2.34-5.38-1.15-2.67-1.25-2.89-.82-3.29.03-.06.06-.14.09-.22.12-.32.44-.58.77-.65.46-.09,1.08-.22,5.56,4.44,2.58,2.69,5.2,5.09,5.94,5.56.09.06.25.14.39.09.12-.05.23-.21.29-.43.24-.88.03-1.88-.21-2.16h0c-.88-1.01-.79-3.09-.24-4.62.43-1.21.4-2.81.09-3.43-.48-.95-.9-1.67-1.01-1.81-.36-.41-.44-1.3-.21-2.61.03-.43-.73-2.38-2.27-4.55-1.41-1.97-4.05-4.6-5.77-5.73-1.9-1.25-6.15-5.41-9.47-9.28-3.39-3.94-6.56-12.37-7.07-18.78l-2.44-30.8c-.47-5.92-3.14-13.11-5.84-15.69-3.02-2.89-6.47-10.38-7.7-16.69l-4.65-23.89c-1.21-6.2-1.98-16.38-1.72-22.69l.02-.52c.24-5.96-1.64-14.08-4.11-17.73-2.46-3.63-9.38-8-15.12-9.54l-18.87-5.08c-4.37-1.18-11.69-3.92-11.42-6.76.22-2.24,3.12-4.15,5.74-4.81,2.2-.55,4.33-3.5,4.65-6.43,0-.06.69-6.15.78-6.59.1-.49.54-.83,1.05-.79l.75.05c3.44.23,6.4-3.04,7.02-7.8.42-3.27.15-5.53-.81-6.7-.55-.68-1.37-1.05-2.51-1.13l-.42-.03c-.44.06-.89-.04-1.29-.29-.65-.4-1.14-1.13-1.34-2.01-.26-1.11-.28-3.13-.06-4.64v-1.24c0-5.09-2.1-9.93-5.91-13.61-3.05-2.95-4.09-3.64-4.31-3.77l-7.72-1.64c-1.54-.33-2.49-.53-3.08-.7v.03s0-.03,0-.03c0,0-.01,0-.02,0,0,0,.01,0,.02,0v-.06s-.08.02-.12.04h0s0,0,0,0h0s-.08-.03-.11-.04v.07c-.6.17-1.55.37-3.09.7l-7.72,1.64c-.22.13-1.26.82-4.31,3.77-3.81,3.68-5.91,8.51-5.91,13.61v1.23c.22,1.45.34,3.54.28,4.71-.05,1.05-.44,1.92-1.08,2.39-.38.28-.82.4-1.26.34l-.43.03c-1.53.11-2.44.74-2.93,2.04-.46,1.23-.58,3.03-.38,5.85.31,4.35,3.23,7.73,6.62,7.75.14-.08.33-.14.56-.17.54-.05,1.02.34,1.09.88v.08c.02.13.01.26-.02.38.15.81.34,2.4.71,5.7.32,2.89,2.45,5.81,4.65,6.36,2.62.66,5.52,2.57,5.74,4.81.27,2.83-7.05,5.58-11.42,6.76l-18.87,5.08c-5.74,1.54-12.66,5.91-15.12,9.54-2.47,3.65-4.35,11.76-4.11,17.73l.02.52c.26,6.31-.52,16.49-1.72,22.69l-4.65,23.89c-1.23,6.31-4.68,13.79-7.7,16.69-2.7,2.58-5.37,9.77-5.84,15.69l-2.44,30.8c-.51,6.41-3.68,14.84-7.07,18.78-3.32,3.87-7.57,8.03-9.47,9.28-1.72,1.13-4.36,3.75-5.77,5.73-1.55,2.17-2.3,4.12-2.27,4.57.23,1.3.15,2.19-.23,2.62-.08.12-.5.84-.99,1.79-.32.62-.35,2.22.09,3.43.55,1.53.64,3.61-.24,4.62-.24.28-.45,1.28-.21,2.16.06.22.17.38.29.43.14.05.31-.03.39-.09.73-.47,3.35-2.87,5.94-5.56,4.47-4.66,5.1-4.53,5.56-4.44.34.07.65.33.77.65.03.08.06.16.09.22.43.39.34.62-.82,3.29-.6,1.38-1.42,3.29-2.34,5.38-1.36,3.12-1.6,5.21-1.44,5.88,1.01-.43,4.02-3.44,7.08-8.59,2.63-4.42,6.36-9.65,8.06-10.74,1.16-.75,1.89-.39,2.23-.11.8.67.77,2.07-.1,4.14-.89,2.13-.78,5.19.24,6.69.05.07.08.09.08.09.34-.08,1.97-1.71,3.5-6.51,1.87-5.84,2.83-10.04,2.78-10.71-.27-.98.06-2.13.77-2.74.21-.67.49-3.47.31-8.04-.18-4.64,1.65-13.2,4.1-19.09l15.92-38.38c2.37-5.72,5.14-15.33,6.16-21.44l5.07-30.17c.69-4.11,1.33-5.49,2.54-5.4,1.21.07,1.69,1.5,1.9,5.66l1.32,26.19c.31,6.21,1.01,13.54,1.55,16.35.6,3.15-1.83,13.08-3.06,16.33-1.2,3.18-3.44,9.82-5.01,14.79-1.49,4.74-2.11,23.07-1.75,29.38l3.09,55.31c.35,6.26.57,16.41.49,22.62-.08,6.25-1.31,16.34-2.75,22.49l-1.73,7.39c-1.4,6-2.1,15.88-1.56,22.02l5.97,67.81c.92,10.47,1.02,11.85.44,12.25-.3.48-1.11,1.99-2.18,4.11-1.29,2.55-6.13,7.85-11.03,12.08l-2.16,1.86c-4.75,4.1-9.47,8.05-10.52,8.81-.83.6-1.75,2.16-1.97,3.35-.17.9.73,2.54,2.2,3.38,1.72.98,6.28,3,10.17,4.5,3.55,1.37,9.87-.34,13.81-3.73,4.51-3.89,11.09-6.55,14.98-6.08,3.59.44,7.2-.15,8.21-.95.68-.54,1.34-5.33.15-12.18l-2.08-11.99c-1.08-6.19-1.83-9.87-2.06-10.68-.32-.52-.21-2.11,1.11-11.83l6.26-46.16c.83-6.1.53-15.99-.66-22.03l-1.25-6.35c-1.23-6.24-1.23-16.39,0-22.64l13.4-68.08c.72-3.68,1.73-5.4,3.17-5.4s2.45,1.71,3.17,5.4l13.4,68.08c1.23,6.24,1.23,16.4,0,22.64l-1.25,6.35c-1.19,6.04-1.48,15.93-.66,22.03l6.25,46.17c1.32,9.72,1.43,11.31,1.11,11.83-.23.81-.99,4.49-2.07,10.68l-2.08,11.99c-1.19,6.85-.53,11.64.15,12.18,1,.8,4.62,1.39,8.21.95.3-.04.62-.06.96-.06ZM240.01,426.84c-.11,0-.2.02-.29.04.12-.04.25-.05.38-.04-.03,0-.06,0-.09,0ZM94.09,362.13h0ZM200.15,360.46h0ZM200.13,110.63v.07c.15-.04.29-.13.41-.24-.1.06-.23.12-.41.17ZM200,110.74h0s0-.01,0-.01h0Z" fill="#231f20"/><path d="M214.75,144.15c-.53-1.41-1.68-2.61-3.07-3.19-1.39-.58-3.05-.56-4.43.06-1.39.63-2.49,1.81-3.47,2.99l-.77-.64c1.06-1.27,2.25-2.55,3.82-3.26,1.62-.73,3.58-.76,5.22-.08,1.65.69,3,2.09,3.62,3.76l-.94.35Z" fill="#231f20"/><path d="M211.48,145.04c-.13,0-.27-.02-.4-.05-.93-.22-1.57-1.17-1.44-2.12.12-.86.88-1.55,1.73-1.64.13-.08.27-.13.44-.16l.03.17c.43.06.88.27,1.32.62.45.36.71.72.79,1.13.09.47-.08.96-.46,1.31-.29.27-.65.42-1.01.45-.3.18-.64.28-.99.28ZM211.69,142.33c-.04.08-.07.18-.08.28-.06.43.15.97.57,1.12.08-.09.15-.19.18-.3.07-.24,0-.52-.18-.76-.13-.17-.31-.29-.49-.34ZM210.62,143.13c0,.15.05.3.12.43-.05-.14-.09-.28-.12-.43Z" fill="#231f20"/><path d="M215.22,144.98c-.4,0-.79-.25-.94-.65-.48-1.29-1.53-2.37-2.8-2.9-1.27-.53-2.78-.51-4.03.06-1.3.58-2.34,1.72-3.29,2.85-.35.43-.98.48-1.41.13-.43-.35-.48-.98-.13-1.41,1.09-1.32,2.34-2.65,4-3.4,1.75-.79,3.85-.82,5.62-.08,1.77.74,3.23,2.25,3.9,4.04.19.52-.07,1.09-.59,1.29-.12.04-.23.06-.35.06Z" fill="#6a4d39"/><path d="M211.49,145.54c-.18,0-.35-.02-.53-.06-1.17-.28-1.99-1.48-1.82-2.68.15-1.05,1.04-1.9,2.08-2.05.16-.08.33-.14.51-.16.39-.06.76.11.97.41.25.12.51.28.76.48.55.43.86.9.97,1.42.13.64-.1,1.3-.61,1.78-.34.31-.75.5-1.18.57-.35.19-.75.3-1.15.3Z" fill="#6a4d39"/><path d="M193.7,145.6c-.13,0-.27-.02-.4-.05-.93-.22-1.57-1.17-1.44-2.12.12-.86.88-1.55,1.73-1.64.13-.08.27-.13.44-.16l.03.17c.43.06.88.27,1.32.62.45.36.71.72.79,1.13.09.47-.08.96-.46,1.31-.29.27-.65.42-1.01.45-.3.18-.64.28-.99.28ZM193.91,142.89c-.04.08-.07.18-.08.27-.06.43.15.97.57,1.13.08-.09.15-.19.18-.3.07-.24,0-.52-.18-.76-.13-.17-.31-.29-.49-.34ZM192.84,143.69c0,.15.05.3.12.43-.05-.14-.1-.28-.12-.43Z" fill="#231f20"/><path d="M185.12,144.78l-.8-.61c.84-1.1,1.78-2.34,3.01-3.25,1.4-1.04,3.02-1.47,4.44-1.18,1.31.27,2.33,1.09,3.32,1.88.49.39.99.79,1.51,1.11l-.52.85c-.57-.35-1.1-.77-1.61-1.18-.94-.75-1.83-1.46-2.9-1.69-1.14-.23-2.46.13-3.64,1-1.11.82-1.98,1.96-2.81,3.05Z" fill="#231f20"/><path d="M193.71,146.1c-.18,0-.35-.02-.53-.06-1.17-.28-1.99-1.48-1.82-2.68.15-1.05,1.04-1.9,2.08-2.05.16-.08.33-.14.51-.16.39-.06.76.11.97.41.25.12.51.28.76.48.55.43.86.9.97,1.42.13.64-.1,1.3-.61,1.78-.34.31-.75.5-1.18.57-.35.19-.75.3-1.15.3Z" fill="#6a4d39"/><path d="M184.72,145.48c-.21,0-.42-.07-.6-.2-.44-.33-.52-.96-.19-1.4.86-1.12,1.83-2.4,3.11-3.35,1.52-1.13,3.28-1.58,4.83-1.27,1.42.29,2.5,1.15,3.53,1.98.5.4.96.77,1.46,1.07.47.29.62.9.33,1.38-.29.47-.9.62-1.38.33-.6-.37-1.14-.8-1.66-1.22-.89-.71-1.73-1.39-2.69-1.58-.99-.21-2.18.13-3.24.91-1.06.78-1.9,1.89-2.71,2.96-.2.26-.49.39-.8.39Z" fill="#6a4d39"/><path d="M200.24,157.71c-.91,0-1.82-.17-2.56-.5-.5-.22-.73-.82-.51-1.32.23-.5.82-.73,1.32-.51.8.36,1.94.43,2.92.19.58-.14,1.04-.47,1.25-.89.17-.34.21-.81.13-1.38-.24-1.63-.88-3.28-1.53-4.82-.24-.57-.51-1.14-.77-1.7-.66-1.4-1.34-2.84-1.7-4.44-.38-1.67-.31-3.37.19-4.77.36-1.01.83-1.74,1.38-2.18.67-.52,1.4-.54,1.93-.56.14,0,.28,0,.42-.02.55-.06,1.04.34,1.1.89s-.34,1.04-.89,1.1c-.19.02-.39.03-.58.03-.42.01-.61.03-.74.13-.24.19-.52.67-.74,1.28-.38,1.05-.42,2.35-.12,3.65.32,1.38.92,2.67,1.56,4.03.28.59.55,1.17.81,1.77.71,1.66,1.4,3.46,1.67,5.31.14.98.04,1.83-.31,2.55-.47.95-1.4,1.66-2.56,1.95-.53.13-1.09.19-1.65.19Z" fill="#6a4d39"/><path d="M200.74,164.93c-1.74,0-3.64-.33-5.75-1.01-1.2-.39-2.54-.92-3.34-1.91-.35-.43-.28-1.06.15-1.41.43-.35,1.06-.28,1.41.15.47.58,1.53.98,2.39,1.26,2.36.76,4.39,1.04,6.19.87,2.1-.21,3.93-1.13,4.54-2.3.26-.49.86-.68,1.35-.42.49.26.68.86.42,1.35-.93,1.77-3.33,3.09-6.12,3.36-.41.04-.83.06-1.25.06Z" fill="#6a4d39"/><path d="M179.9,152.3c-.06,0-.12,0-.19-.02-.54-.1-.9-.62-.8-1.17.3-1.59-.15-3.12-.58-4.12-.65-1.5-1.66-2.81-2.47-3.78-.35-.42-.3-1.06.13-1.41.42-.35,1.05-.3,1.41.13.9,1.08,2.02,2.53,2.77,4.26.78,1.8,1.03,3.63.71,5.29-.09.48-.51.81-.98.81Z" fill="#6a4d39"/><path d="M178.17,149.67c-.07,0-.14,0-.21-.02l-1.65-.35c-.54-.11-.89-.64-.77-1.18.11-.54.65-.88,1.18-.77l1.65.35c.54.11.89.64.77,1.18-.1.47-.51.79-.98.79Z" fill="#6a4d39"/><path d="M220.68,151.17c-.54,0-.99-.44-1-.98-.05-3.2,1.39-6.33,3.84-8.38.42-.35,1.05-.3,1.41.13.35.42.3,1.05-.13,1.41-1.97,1.64-3.17,4.26-3.13,6.82,0,.55-.43,1.01-.98,1.02h-.02Z" fill="#6a4d39"/><path d="M221.43,149.52c-.54,0-.99-.44-1-.98-.01-.55.43-1.01.98-1.02.75-.01,1.49-.12,2.2-.31.54-.14,1.08.18,1.22.71.14.53-.18,1.08-.71,1.22-.87.23-1.77.36-2.68.37h-.02Z" fill="#6a4d39"/><path d="M192.52,136.27c-.19,0-.38-.05-.55-.17-.23-.15-.5-.21-.86-.29-.31-.07-.65-.14-1.02-.3-.47-.2-1.05-.18-1.51.05-.5.25-1.1.04-1.34-.45-.25-.49-.05-1.09.45-1.34.98-.49,2.17-.53,3.19-.09.19.08.41.13.66.19.44.1.99.22,1.53.58.46.31.58.93.28,1.39-.19.29-.51.45-.83.45Z" fill="#6a4d39"/><path d="M206.78,135.83c-.32,0-.64-.16-.83-.44-.31-.46-.18-1.08.28-1.39.54-.36,1.09-.48,1.54-.58.25-.06.47-.1.66-.18,1.01-.43,2.2-.4,3.19.09.49.25.7.85.45,1.34-.25.49-.85.7-1.34.45-.46-.23-1.04-.25-1.51-.04-.36.15-.71.23-1.01.3-.35.08-.63.14-.86.29-.17.11-.36.17-.55.17Z" fill="#6a4d39"/><path d="M160.03,200.58c-.18,0-.36-.05-.53-.15l-1.61-1c-.47-.29-.61-.9-.33-1.37l1.09-1.79c.29-.47.9-.62,1.37-.33.47.29.62.9.33,1.38l-.57.94.77.48c.47.29.61.91.32,1.38-.19.31-.52.47-.85.47Z" fill="#231f20"/><path d="M155.33,198.46c-.48,0-.91-.35-.99-.84-.09-.55.29-1.06.83-1.14l3.68-.58c.54-.09,1.06.29,1.14.83.09.55-.29,1.06-.83,1.14l-3.68.58c-.05,0-.11.01-.16.01Z" fill="#231f20"/><path d="M156.89,201.33c-.48,0-.91-.35-.99-.84-.09-.55.29-1.06.83-1.14l3.03-.48c.54-.09,1.06.28,1.14.83.09.55-.29,1.06-.83,1.14l-3.03.48c-.05,0-.11.01-.16.01Z" fill="#231f20"/><path d="M143.65,207.34c-.45,0-.82-.35-.85-.8-.03-.47.33-.87.8-.9.42-.02.84-.05,1.28-.07,3.78-.19,8.06-.4,9.86-3.58.98-1.74.36-3.95-1.38-4.93-1.74-.98-3.95-.36-4.93,1.38-.23.41-.75.55-1.16.32s-.55-.75-.32-1.16c1.44-2.55,4.69-3.46,7.24-2.02,2.55,1.44,3.46,4.69,2.02,7.24-2.26,4.01-7.25,4.25-11.26,4.45-.43.02-.85.04-1.26.07-.02,0-.03,0-.05,0Z" fill="#6a4d39"/><path d="M151.41,213.62c-.17,0-.34-.05-.49-.16l-3.48-2.47c-.38-.27-.47-.8-.2-1.18s.8-.47,1.19-.2l2.79,1.98,1.9-2.67c.27-.38.8-.47,1.19-.2.38.27.47.8.2,1.18l-2.39,3.36c-.17.23-.43.36-.69.36Z" fill="#6a4d39"/><path d="M143.4,201.88c-.43,0-.8-.33-.85-.77-.04-.47.3-.88.77-.92l11.54-1.07c.47-.04.88.3.92.77.04.47-.3.88-.77.92l-11.54,1.07s-.05,0-.08,0Z" fill="#6a4d39"/><path d="M142.8,204.7c-.43,0-.8-.32-.84-.76-.05-.47.28-.89.75-.94l12.52-1.4c.47-.06.89.29.94.75.05.47-.28.89-.75.94l-12.52,1.4s-.06,0-.1,0Z" fill="#6a4d39"/><path d="M151.03,211.07c-.39,0-.74-.27-.83-.67l-.96-4.32c-.1-.46.19-.91.65-1.01.46-.1.91.19,1.01.65l.96,4.32c.1.46-.19.91-.65,1.01-.06.01-.12.02-.19.02Z" fill="#6a4d39"/><path d="M160.03,200.43c-.15,0-.31-.04-.45-.13l-1.61-1c-.4-.25-.52-.77-.28-1.16l1.09-1.79c.24-.4.77-.53,1.17-.28.4.24.53.77.28,1.17l-.65,1.07.9.56c.4.25.52.77.27,1.17-.16.26-.44.4-.72.4Z" fill="#6a4d39"/><path d="M155.33,198.31c-.41,0-.77-.3-.84-.72-.07-.46.24-.9.71-.97l3.68-.58c.46-.07.9.24.97.71.07.46-.24.9-.71.97l-3.68.58s-.09.01-.13.01Z" fill="#6a4d39"/><path d="M156.89,201.18c-.41,0-.77-.3-.84-.72-.07-.46.24-.9.71-.97l3.03-.48c.46-.07.9.24.97.71.07.46-.24.9-.71.97l-3.03.48s-.09.01-.13.01Z" fill="#6a4d39"/><path d="M147.88,198.59c-.1,0-.2-.02-.3-.06-.44-.17-.66-.66-.49-1.1.51-1.35.53-2.9.05-4.26-.16-.44.08-.93.52-1.08.45-.16.93.08,1.08.52.61,1.73.58,3.71-.06,5.43-.13.34-.45.55-.79.55Z" fill="#6a4d39"/><path d="M243.68,200.45c-.09,0-.18-.02-.26-.07-.24-.14-.31-.45-.17-.69.29-.48,1.86-2.89,4.6-3.03.74-.04,1.48.09,2.2.39.26.11.38.4.27.65-.11.25-.4.38-.65.27-.58-.24-1.18-.34-1.77-.32-2.28.12-3.64,2.3-3.79,2.54-.09.16-.26.24-.43.24Z" fill="#231f20"/><path d="M250.69,197.33c-.16,0-.32-.08-.41-.22-.41-.61-1.18-1.43-2.51-1.92-1.24-.45-2.45-.41-3.24-.3-.28.03-.53-.15-.56-.43s.15-.53.43-.56c.91-.13,2.29-.17,3.72.35,1.58.58,2.51,1.57,3,2.3.16.23.1.54-.13.69-.09.06-.18.09-.28.09Z" fill="#231f20"/><path d="M250.69,194.29c-.18,0-.36-.1-.45-.28-.24-.48-.56-.89-.96-1.24-.73-.62-1.56-.88-2.13-.98-.27-.05-.45-.31-.4-.58.05-.27.3-.45.58-.4.99.18,1.9.59,2.61,1.2.5.43.91.95,1.2,1.55.12.25.02.55-.23.67-.07.04-.15.05-.22.05Z" fill="#231f20"/><path d="M248.96,204.08c-.2,0-.39-.12-.46-.31-.14-.35.09-.64.38-1,.11-.14.32-.4.35-.5.06-.8.56-1.35.78-1.55.2-.19.52-.18.71.03.19.2.17.52-.03.71-.13.12-.43.44-.46.92-.03.34-.3.68-.56,1.01-.07.08-.16.2-.21.27-.02.17-.14.32-.31.39-.06.02-.12.04-.19.04Z" fill="#231f20"/><path d="M250.96,204.68c-.19,0-.37-.1-.45-.28-.1-.22-.04-.47.14-.61.05-.07.13-.25.19-.37.12-.24.24-.49.38-.67.3-.38.3-.82.28-.99-.02-.28.18-.52.46-.54.29-.02.52.18.54.46.02.29.02,1.04-.5,1.69-.07.09-.17.3-.26.48-.19.4-.32.66-.57.78-.07.03-.14.05-.21.05ZM250.96,204.18h0,0Z" fill="#231f20"/><path d="M245.77,205.34c-.28,0-.5-.22-.5-.5,0-.62.13-2.74,1.89-4.24,1.02-.87,2.15-1.16,2.92-1.24.27-.02.52.17.55.44.03.27-.17.52-.44.55-.63.07-1.55.3-2.38,1.01-1.43,1.22-1.54,2.97-1.54,3.47,0,.28-.22.5-.5.5h0Z" fill="#231f20"/><path d="M244.11,208.41s-.02,0-.02,0c-.28-.01-.49-.25-.48-.52.07-1.48,1.12-3.47,2.11-3.47h.11c.78,0,1.29.24,1.43,1.58.03.27-.17.52-.44.55-.28.03-.52-.17-.55-.44-.06-.58-.17-.68-.17-.68-.03-.01-.16,0-.24,0h-.13c-.25.11-1.06,1.33-1.12,2.52-.01.27-.23.48-.5.48Z" fill="#231f20"/><path d="M252.78,207.99c-.13,0-.25-.05-.35-.14-.2-.19-.2-.51-.01-.71.35-.36,1.49-1.69,1.31-3.57-.1-1.09-.61-1.89-1.01-2.38-.18-.21-.15-.53.06-.7.21-.18.53-.15.7.06.49.59,1.11,1.58,1.24,2.92.22,2.3-1.16,3.92-1.59,4.36-.1.1-.23.15-.36.15Z" fill="#231f20"/><path d="M251.85,210.48c-.12,0-.24-.04-.34-.13-.2-.19-.22-.5-.03-.71.79-.87.92-1.66.84-1.83l-.07-.07s-.1-.1-.13-.12c0,.01-.16.05-.57.4-.21.18-.53.15-.7-.06-.18-.21-.15-.53.06-.7.9-.76,1.46-.82,2.05-.22l.07.07c.63.6.27,2.01-.81,3.2-.1.11-.23.16-.37.16Z" fill="#231f20"/><path d="M251.4,202.41c-.17,0-.32-.03-.47-.08-1.68-.66-1.21-4.42.11-7.8.22-.57.48-1.14.8-1.77.13-.25.43-.34.67-.22.25.12.34.43.22.67-.31.61-.55,1.14-.76,1.68-1.51,3.85-1.25,6.29-.68,6.51.49.21,2.3-.97,3.47-3.08.13-.24.44-.33.68-.19.24.13.33.44.19.68-1.03,1.85-2.9,3.61-4.24,3.61Z" fill="#231f20"/><path d="M243.68,200.8c-.15,0-.3-.04-.43-.12-.4-.24-.54-.76-.29-1.17.3-.51,1.96-3.05,4.88-3.2.8-.04,1.59.1,2.36.42.43.18.64.68.46,1.11-.18.43-.68.64-1.11.46-.54-.22-1.08-.32-1.62-.29-2.1.11-3.37,2.14-3.51,2.37-.16.27-.44.42-.73.42Z" fill="#6a4d39"/><path d="M250.69,197.68c-.27,0-.54-.13-.7-.37-.38-.57-1.1-1.33-2.34-1.79-1.17-.43-2.32-.39-3.08-.28-.46.07-.89-.26-.96-.72-.06-.46.26-.89.72-.96.95-.13,2.39-.18,3.89.37,1.67.61,2.65,1.66,3.17,2.43.26.39.16.92-.23,1.18-.15.1-.31.15-.48.15Z" fill="#6a4d39"/><path d="M250.69,194.64c-.31,0-.61-.17-.76-.47-.22-.44-.51-.81-.87-1.12-.67-.57-1.44-.81-1.96-.9-.46-.08-.77-.52-.69-.99.08-.46.52-.77.99-.69,1.06.19,2.02.63,2.77,1.28.54.46.97,1.02,1.29,1.66.21.42.04.93-.38,1.14-.12.06-.25.09-.38.09Z" fill="#6a4d39"/><path d="M248.96,204.43c-.34,0-.66-.2-.79-.54-.21-.54.11-.95.43-1.35.08-.1.22-.28.28-.38.1-.9.65-1.49.88-1.71.34-.32.88-.3,1.2.05.32.35.3.88-.05,1.2-.1.09-.32.34-.35.69-.04.45-.34.83-.63,1.21-.06.07-.11.13-.15.19-.07.25-.25.47-.51.58-.1.04-.21.06-.31.06ZM249.75,203.27s0,0,0,0t0,0ZM249.75,203.27s0,0,0,0c0,0,0,0,0,0Z" fill="#6a4d39"/><path d="M250.96,205.04c-.32,0-.62-.18-.77-.48-.16-.34-.08-.74.19-.99.05-.08.09-.18.15-.29.13-.26.25-.53.42-.73.22-.28.22-.61.21-.75-.04-.47.31-.88.78-.92.47-.04.88.31.92.78.03.33.02,1.18-.57,1.93-.07.1-.14.26-.22.42-.21.43-.37.77-.73.94-.12.06-.24.08-.37.08ZM250.59,203.42s0,0,0,0c0,0,0,0,0,0Z" fill="#6a4d39"/><path d="M245.77,205.69c-.47,0-.85-.38-.85-.85,0-.65.14-2.91,2.02-4.5,1.09-.93,2.29-1.23,3.11-1.32.46-.07.89.29.94.75.05.47-.29.89-.75.94-.58.06-1.43.27-2.19.92-1.35,1.15-1.42,2.87-1.42,3.21,0,.47-.38.85-.85.85h0Z" fill="#6a4d39"/><path d="M244.11,208.75h-.04c-.47-.02-.83-.42-.81-.89.08-1.67,1.25-3.8,2.46-3.81h.11c1.09-.04,1.64.54,1.79,1.89.05.47-.29.89-.76.94-.47.04-.89-.29-.94-.76-.02-.17-.04-.29-.06-.37-.29.26-.86,1.22-.91,2.18-.02.46-.4.81-.85.81ZM245.74,205.76h-.01.01Z" fill="#6a4d39"/><path d="M252.78,208.34c-.21,0-.43-.08-.59-.24-.34-.33-.34-.87-.02-1.2.23-.24,1.38-1.52,1.21-3.29-.1-1-.56-1.74-.93-2.19-.3-.36-.25-.9.11-1.2.36-.3.9-.25,1.2.11.53.63,1.18,1.68,1.32,3.11.24,2.45-1.23,4.17-1.68,4.64-.17.17-.39.26-.61.26Z" fill="#6a4d39"/><path d="M251.85,210.83c-.2,0-.41-.07-.57-.22-.35-.32-.37-.85-.06-1.2.47-.52.67-.98.74-1.26-.05.04-.11.09-.18.15-.36.3-.9.26-1.2-.1-.3-.36-.26-.9.1-1.2,1.04-.88,1.79-.93,2.53-.2.84.82.5,2.4-.73,3.75-.17.18-.4.28-.63.28ZM252.08,208.08s0,0,0,0h0Z" fill="#6a4d39"/><path d="M251.39,202.75c-.2,0-.4-.03-.58-.1-1.98-.78-1.43-4.82-.08-8.26.23-.58.49-1.16.82-1.8.21-.42.72-.58,1.14-.37.42.21.58.72.37,1.14-.3.6-.54,1.12-.75,1.65-1.39,3.54-1.17,5.8-.86,6.06.37.04,1.91-.95,3.02-2.93.23-.41.75-.56,1.16-.33.41.23.56.75.33,1.16-1.11,1.99-3.07,3.78-4.56,3.78Z" fill="#6a4d39"/><path d="M169.87,238.86c-.09,0-.19-.01-.28-.04-1.2-.35-2.31-.91-3.31-1.67-1.31-1-2.44-2.34-3.64-4.34-2.79-4.63-4.36-9.82-5.88-14.85-.16-.53.14-1.09.67-1.25.53-.16,1.09.14,1.25.67,1.48,4.9,3.01,9.97,5.67,14.39,1.07,1.77,2.04,2.94,3.14,3.78.79.6,1.7,1.06,2.65,1.34.53.15.84.71.68,1.24-.13.44-.53.72-.96.72Z" fill="#6a4d39"/><path d="M230.85,238.86c-.43,0-.83-.28-.96-.72-.15-.53.15-1.08.68-1.24.95-.28,1.87-.74,2.65-1.34,1.1-.84,2.07-2.01,3.14-3.78,2.66-4.42,4.19-9.49,5.67-14.39.16-.53.72-.83,1.25-.67.53.16.83.72.67,1.25-1.52,5.02-3.08,10.21-5.88,14.85-1.21,2-2.33,3.34-3.65,4.34-.99.76-2.11,1.32-3.31,1.67-.09.03-.19.04-.28.04Z" fill="#6a4d39"/><path d="M202.82,239.51c-.25,0-.5-.09-.69-.28-1.01-.96-2.26-2.16-3.12-3.63-.5.92-1.09,1.78-1.77,2.58-.29.34-1.18,1.38-2.44,1.25-.55-.06-.95-.55-.89-1.1.06-.55.54-.95,1.1-.89,0,0,.22.01.71-.56,1.07-1.26,1.88-2.68,2.43-4.24.15-.43.57-.71,1.03-.67.46.04.83.38.9.84.3,1.85,1.73,3.35,3.44,4.97.4.38.42,1.01.03,1.41-.2.21-.46.31-.72.31Z" fill="#6a4d39"/><path d="M199.37,290.05c-.26,2.11-.2,4.36.15,6.41" fill="#dfbb98"/><path d="M199.52,297.45c-.48,0-.9-.34-.98-.83-.37-2.13-.42-4.51-.16-6.7.07-.55.56-.95,1.11-.87.55.07.94.56.87,1.11-.24,2-.19,4.17.14,6.11.09.54-.27,1.06-.81,1.16-.06,0-.12.01-.17.01Z" fill="#6a4d39"/><path d="M170.44,299.53c.3,3.06,1.47,6.03,3.15,8.82" fill="#dfbb98"/><path d="M173.59,309.35c-.34,0-.67-.17-.86-.49-1.89-3.15-2.99-6.25-3.28-9.24-.05-.55.35-1.04.9-1.09.55-.05,1.04.35,1.09.9.26,2.69,1.28,5.51,3.01,8.4.28.47.13,1.09-.34,1.37-.16.1-.34.14-.51.14Z" fill="#6a4d39"/><path d="M229.93,299.53c-.3,3.06-1.47,6.03-3.15,8.82" fill="#dfbb98"/><path d="M226.78,309.35c-.17,0-.35-.05-.51-.14-.47-.28-.63-.9-.34-1.37,1.73-2.89,2.75-5.72,3.01-8.4.05-.55.55-.94,1.09-.9.55.05.95.54.9,1.09-.29,2.98-1.4,6.09-3.28,9.24-.19.31-.52.49-.86.49Z" fill="#6a4d39"/><path d="M171.24,234.39c-.17,0-.34-.03-.52-.08-1.09-.32-2.09-.99-2.81-1.86-.23-.27-.28-.63-.18-.95-.17-.21-.32-.43-.45-.66-.07-.13-.27-.51-.16-.99.16-.65.78-1.02,1.54-.95,2,.21,3.66,1.88,3.87,3.87.09.83-.33,1.24-.58,1.41-.21.14-.46.21-.72.21Z" fill="#a64c45"/><path d="M229.14,234.39c-.27,0-.51-.07-.72-.21-.26-.17-.67-.57-.58-1.41.21-2,1.87-3.66,3.87-3.87.77-.08,1.38.3,1.54.94.12.48-.08.86-.15.99-.13.24-.28.46-.45.67.1.31.05.67-.18.95-.72.88-1.72,1.54-2.81,1.86-.18.05-.36.08-.52.08Z" fill="#a64c45"/><path d="M200.32,310.58h-.28c-5.68-.02-11.8-.23-18.31-.73-8.74-.68-16.74-1.77-23.91-3.04-2,6.69-3.24,13.62-2.93,20.56l2.3,41.14c3.49.73,7.11,1.41,10.88,2,10,1.56,19.38,2.29,27.98,2.49l3.94-14.49,3.95,14.51c9.04-.14,18.96-.87,29.58-2.53,3.35-.52,6.59-1.12,9.72-1.76l2.76-40.46c.31-7.02-.95-14.53-3-21.54-7.29,1.31-15.44,2.43-24.37,3.12-6.51.5-12.64.72-18.31.73Z" fill="#fff"/><path d="M203.95,374.01c-.45,0-.85-.3-.96-.74l-2.98-10.96-2.98,10.95c-.12.44-.56.76-.99.74-9.43-.22-18.89-1.07-28.11-2.51-3.58-.56-7.26-1.23-10.93-2.01-.44-.09-.77-.47-.79-.92l-2.3-41.14c-.29-6.44.69-13.27,2.97-20.91.15-.49.63-.79,1.13-.7,7.85,1.39,15.86,2.41,23.81,3.03,6.03.47,12.16.71,18.24.73h.28c6.08-.02,12.21-.26,18.24-.73,8.12-.63,16.29-1.67,24.27-3.11.5-.09.99.21,1.14.71,2.27,7.81,3.32,15.37,3.04,21.87l-2.76,40.49c-.03.45-.36.82-.8.91-3.29.67-6.57,1.26-9.77,1.76-9.76,1.53-19.76,2.38-29.72,2.54h-.02ZM200,357.5h0c.45,0,.85.3.96.74l3.74,13.76c9.61-.19,19.25-1.03,28.66-2.5,2.92-.46,5.92-.99,8.93-1.6l2.71-39.7c.27-6.02-.67-13.04-2.71-20.33-7.77,1.37-15.7,2.37-23.58,2.98-6.08.47-12.26.72-18.39.74h-.28c-6.13-.02-12.31-.27-18.39-.74-7.72-.6-15.49-1.57-23.12-2.9-2.04,7.07-2.9,13.42-2.64,19.38l2.26,40.36c3.39.7,6.78,1.32,10.08,1.83,8.88,1.39,17.98,2.22,27.07,2.46l3.74-13.74c.12-.44.51-.74.96-.74Z" fill="#231f20"/><path d="M201.41,359.5c-4.85,0-9.72-2.13-12.96-5.74-3.1-3.45-4.42-8-3.44-11.88.13-.54.68-.86,1.21-.73.54.13.86.68.73,1.21-.81,3.24.33,7.1,2.99,10.05,3.11,3.46,7.92,5.39,12.56,5.03.55-.05,1.03.37,1.07.92s-.37,1.03-.92,1.07c-.41.03-.83.05-1.24.05Z" fill="#939598"/><path d="M200.61,321.34c-.1,0-7.04-.13-11.17-.21l-6.14-.46c-8.68-.65-17.39-1.8-25.88-3.4-.54-.1-.9-.62-.8-1.17.1-.54.63-.9,1.17-.8,8.42,1.59,17.06,2.72,25.66,3.37l6.08.46c5.95.11,10.93.21,11.09.21.15,0,5.12-.1,11.13-.21l6.03-.46c8.6-.65,17.24-1.78,25.66-3.37.54-.1,1.07.26,1.17.8.1.54-.25,1.07-.8,1.17-8.5,1.6-17.21,2.74-25.88,3.4l-6.08.46c-4.19.08-11.13.21-11.23.21Z" fill="#939598"/><path d="M137.97,247.43c-.06,0-.13,0-.19-.02-.54-.11-.9-.63-.79-1.17l2.24-11.5c1.18-6.07,1.94-16.04,1.69-22.23l-.02-.52c-.26-6.43,1.73-14.92,4.45-18.93,2.73-4.03,8.96-8.39,13.9-9.72l8.59-2.31c.53-.14,1.08.17,1.23.71.14.53-.17,1.08-.71,1.23l-8.59,2.31c-4.46,1.2-10.31,5.28-12.76,8.91-2.47,3.65-4.35,11.76-4.11,17.73l.02.52c.26,6.31-.52,16.49-1.72,22.69l-2.24,11.5c-.09.48-.51.81-.98.81ZM261.91,246.83c-.47,0-.89-.33-.98-.81l-2.14-11.02c-1.19-6.14-1.96-16.27-1.7-22.58l.02-.52c.24-5.96-1.64-14.08-4.11-17.73-2.46-3.63-9.11-7.92-14.54-9.38l-10.37-2.79.52-1.93,10.37,2.79c5.92,1.59,12.95,6.17,15.67,10.2,2.71,4.01,4.71,12.5,4.45,18.93l-.02.52c-.25,6.18.49,16.1,1.66,22.12l2.14,11.02c.11.54-.25,1.07-.79,1.17-.06.01-.13.02-.19.02Z" fill="#231f20"/><path d="M180.35,155.67v-.08c-.29.03-.11.05,0,.08Z" fill="#3d2815"/><path d="M180.31,156.16s-.05,0-.08,0l.08-.32v-.02s-.11.33-.11.33c-.47-.11-.52-.4-.51-.56.01-.2.13-.45.61-.5.28,0,.51.17.54.44.02.16-.04.36-.16.47-.1.09-.23.16-.36.16ZM180.35,155.67h0s0,0,0,0h0Z" fill="#231f20"/><path d="M221.92,134.96l-.17-.71c.25-1.24.39-2.52.39-3.83,0-5.56-2.36-10.61-6.21-14.33-3.99-3.86-9.58-6.28-15.78-6.35h0c-.05,0-.1,0-.15,0-.05,0-.1,0-.15,0h0c-6.2.09-11.79,2.5-15.78,6.36-3.85,3.72-6.21,8.76-6.21,14.33,0,1.31.14,2.59.39,3.83l-.04.71-.08,1.55c1.12,1.05,2.34,2.1,2.96,1.39.46-.53.85-1.62,1.17-2.94.71-2.92,1.11-6.95,1.3-8.4.18-1.41.64-2.87,1.72-3.79,1.84-1.56,5.66-1.5,7.89-1.04,2.3.47,4.48,1.49,6.86,1.49,2.37,0,4.3-.84,6.51-1.54,2.49-.79,6.98-.7,8.66,1.71.67.96.69,2.15.81,3.27.14,1.19.43,2.36.65,3.54.11.58.52,2.83.98,4.76.33,1.38.68,2.61.97,2.94.73.84,2.28-.76,3.54-1.93l-.23-1Z" fill="#3d2815"/><path d="M219.12,139.13s-.06,0-.09,0c-.46-.02-.87-.22-1.17-.57-.28-.32-.62-.95-1.19-3.37-.39-1.66-.75-3.53-.92-4.43l-.07-.37c-.06-.33-.13-.66-.2-.99-.18-.85-.36-1.73-.46-2.62l-.06-.53c-.08-.87-.17-1.68-.59-2.29-1.32-1.89-5.28-2.05-7.54-1.33-.42.13-.82.27-1.22.41-1.72.58-3.5,1.19-5.59,1.19-1.68,0-3.24-.46-4.74-.9-.8-.24-1.55-.46-2.32-.61-2.37-.48-5.65-.36-7.04.83-.72.61-1.18,1.67-1.38,3.16-.03.26-.07.6-.12,1-.22,1.89-.6,5.05-1.2,7.5-.41,1.67-.85,2.74-1.38,3.36-.31.35-.71.55-1.17.57-1.06.05-2.08-.82-3.22-1.89-.22-.2-.33-.49-.32-.78l.11-2.14c-.25-1.3-.38-2.61-.38-3.91,0-5.64,2.31-10.98,6.52-15.04,4.32-4.17,10.11-6.52,16.33-6.63.05,0,.09,0,.14,0,.01,0,.1,0,.12,0h.19s.09,0,.14,0c6.22.11,12.02,2.46,16.33,6.63,4.2,4.06,6.52,9.4,6.52,15.04,0,1.26-.12,2.54-.37,3.81l.12.5h0l.23,1c.08.35-.03.72-.29.96l-.33.31c-1.16,1.09-2.27,2.13-3.38,2.13ZM179.16,136.1c.6.54,1.03.87,1.29.99.18-.29.49-.94.84-2.36.57-2.34.94-5.42,1.16-7.26.05-.41.09-.76.12-1.02.26-1.99.96-3.48,2.06-4.42,2.28-1.94,6.56-1.71,8.74-1.26.85.17,1.68.42,2.49.65,1.43.42,2.78.82,4.17.82,1.75,0,3.3-.52,4.95-1.08.41-.14.83-.28,1.26-.42,2.75-.87,7.76-.81,9.79,2.09.72,1.03.83,2.2.94,3.23l.05.5c.09.81.26,1.6.43,2.44.07.34.14.68.21,1.02l.07.38c.17.88.51,2.73.9,4.34.33,1.41.56,2.06.67,2.34.45-.22,1.25-.97,1.76-1.44l-.27-1.15c-.03-.14-.03-.28,0-.42.24-1.21.37-2.43.37-3.63,0-5.09-2.1-9.93-5.91-13.61-3.98-3.84-9.34-6-15.1-6.07-.03,0-.06,0-.09,0h-.05s-.03,0-.05,0c-.03,0-.06,0-.09,0-5.76.07-11.12,2.23-15.1,6.07-3.81,3.68-5.91,8.51-5.91,13.61,0,1.2.12,2.42.37,3.63.02.08.02.17.02.25l-.09,1.8Z" fill="#231f20"/></svg>