<?xml version="1.0" encoding="UTF-8"?><svg id="a" xmlns="http://www.w3.org/2000/svg" width="400" height="700" viewBox="0 0 400 700"><path d="M237.17,286.79l-.72-27.59,1.4-5.97,3.58-1.02,22.21-5.88,10.7-9.28-17.66-41.5-12.36-9.13-18.39-5.03-5.02-1.37-11.19-5.86.52,4.02c.22,1.71-.14,3.44-1.01,4.92l-2.57,4.35.09-.04-6.7,11.06-6.61-11.12.09.05-2.54-4.37c-.86-1.49-1.21-3.22-.97-4.93l.55-4.02-11.24,5.76-5.04,1.33-18.43,4.87-12.44,9.02-18.02,41.35,10.62,9.37,22.16,6.07,3.47.61,1.45,6.43-.96,27.58,37.52,1.64,37.53-1.31Z" fill="#0f587c"/><path d="M161.55,252.81c-.43,0-.83-.28-.96-.71l-8.15-27.29c-.16-.53.14-1.09.67-1.24s1.09.14,1.24.67l8.15,27.29c.16.53-.14,1.09-.67,1.24-.1.03-.19.04-.29.04Z" fill="#09426e"/><path d="M184.45,198.41s-.08,0-.12,0c-.31-.04-.58-.21-.74-.48l-5.48-9.1c-.1-.16-.15-.35-.14-.54l.24-8.45c.02-.55.49-.97,1.03-.97.55.02.99.48.97,1.03l-.24,8.15,4.67,7.74,8.55-8.69c.39-.39,1.02-.4,1.41-.01.39.39.4,1.02.01,1.41l-9.45,9.61c-.19.19-.45.3-.71.3Z" fill="#09426e"/><path d="M158.92,243.99c-.1,0-.21-.02-.31-.05l-19.7-6.52c-.52-.17-.81-.74-.63-1.26.17-.52.74-.81,1.26-.63l19.7,6.52c.52.17.81.74.63,1.26-.14.42-.53.69-.95.69Z" fill="#09426e"/><path d="M139.22,237.47c-.2,0-.4-.06-.57-.18l-10.11-7.02c-.45-.31-.57-.94-.25-1.39.31-.45.94-.57,1.39-.25l10.11,7.02c.45.31.57.94.25,1.39-.19.28-.51.43-.82.43Z" fill="#09426e"/><path d="M193.4,261.36s-.03,0-.04,0l-26.81-1.2c-.46-.02-.85-.35-.94-.81l-3.33-17.13-3.02-18.96c-.04-.28.03-.57.22-.79.18-.22.45-.35.74-.36l32.54-.95c.27,0,.53.09.72.28.19.18.3.44.31.71l.61,38.22c0,.28-.11.54-.3.73-.19.18-.44.28-.7.28ZM167.42,258.2l24.96,1.12-.57-36.14-30.39.89,2.83,17.8,3.18,16.33Z" fill="#09426e"/><path d="M175.9,236.76c-.06,0-.13,0-.19-.02l-14.07-2.68c-.41-.08-.73-.41-.8-.83l-1.59-9.98c-.04-.28.03-.57.22-.79.18-.22.45-.35.74-.36l32.54-.95c.27,0,.53.09.72.28.19.18.3.44.31.71l.15,9.59c0,.47-.31.88-.77.99l-17.04,4.02c-.08.02-.15.03-.23.03ZM162.71,232.23l13.17,2.51,16.05-3.79-.12-7.78-30.39.89,1.3,8.17Z" fill="#09426e"/><path d="M237.84,254.23c-.1,0-.19-.01-.29-.04-.53-.16-.83-.72-.67-1.25l8.56-28.31c.16-.53.72-.83,1.25-.67.53.16.83.72.67,1.25l-8.56,28.31c-.13.43-.53.71-.96.71Z" fill="#09426e"/><path d="M215.6,198.54c-.27,0-.53-.11-.72-.3l-9.37-9.69c-.38-.4-.37-1.03.02-1.41.4-.38,1.03-.37,1.41.02l8.48,8.76,4.73-7.7-.17-8.16c-.01-.55.43-1.01.98-1.02.59.01,1.01.43,1.02.98l.17,8.45c0,.19-.05.38-.15.54l-5.56,9.05c-.16.26-.44.44-.74.47-.04,0-.07,0-.11,0Z" fill="#09426e"/><path d="M241.14,243.32c-.44,0-.84-.29-.96-.73-.15-.53.17-1.08.7-1.23l19.34-5.33c.53-.15,1.08.17,1.23.7s-.17,1.08-.7,1.23l-19.34,5.33c-.09.02-.18.04-.27.04Z" fill="#09426e"/><path d="M260.49,237.99c-.32,0-.63-.15-.83-.44-.31-.46-.19-1.08.26-1.39l10.17-6.93c.46-.31,1.08-.19,1.39.26.31.46.19,1.08-.26,1.39l-10.17,6.93c-.17.12-.37.17-.56.17Z" fill="#09426e"/><path d="M206.11,261.42c-.26,0-.52-.1-.7-.29-.2-.19-.3-.46-.3-.74l.93-38.21c0-.27.12-.52.31-.7.19-.18.45-.3.72-.27l32.54,1.23c.29.01.56.14.74.37.18.22.26.51.21.8l-3.17,18.9-3.49,17.14c-.09.45-.48.78-.94.8l-26.82.97s-.02,0-.04,0ZM208.01,223.25l-.88,36.13,24.97-.91,3.32-16.33,2.98-17.75-30.39-1.15Z" fill="#09426e"/><path d="M223.81,236.97c-.08,0-.16,0-.24-.03l-17.01-4.16c-.46-.11-.77-.53-.76-1l.23-9.59c0-.27.12-.52.31-.7.19-.18.45-.3.72-.27l32.54,1.23c.29.01.56.14.74.37.18.22.26.51.21.8l-1.67,9.97c-.07.42-.39.74-.81.82l-14.09,2.56c-.06.01-.12.02-.18.02ZM207.82,231.02l16.02,3.92,13.19-2.4,1.37-8.15-30.39-1.15-.19,7.78Z" fill="#09426e"/><path d="M199.63,289.1h0c-.55,0-1-.45-1-1l.33-76.34c0-.55.45-1,1-1h0c.55,0,1,.45,1,1l-.33,76.34c0,.55-.45,1-1,1Z" fill="#09426e"/><path d="M199.96,211.21h0c-1.83,0-3.31-1.35-3.31-2.98l.97-6.6c0-1.63,1.08-2.96,2.39-2.96h0c1.31,0,2.37,1.35,2.36,2.98l.92,6.61c0,1.63-1.51,2.96-3.33,2.95Z" fill="#9aa8b1"/><path d="M199.98,212.21h-.02c-1.13,0-2.2-.41-3.01-1.14-.84-.76-1.3-1.77-1.3-2.85,0-.05,0-.09.01-.14l.96-6.53c.04-2.15,1.55-3.88,3.38-3.88h.01c1.84,0,3.33,1.75,3.36,3.91l.91,6.54s0,.09,0,.14c0,1.08-.47,2.08-1.32,2.84-.81.72-1.87,1.11-3,1.11ZM197.66,208.3c.02.48.24.93.63,1.29.44.4,1.04.62,1.68.62.63.02,1.23-.21,1.68-.61.4-.35.63-.81.65-1.28l-.91-6.53s0-.09,0-.14c0-1.07-.62-1.97-1.37-1.97h0c-.74,0-1.37.9-1.38,1.96,0,.05,0,.09-.01.14l-.96,6.52Z" fill="#1b3844"/><path d="M199.67,289.1l-37.6-1.64c-.55-.02-.98-.49-.96-1.03l.95-27.45-1.27-5.65-2.82-.49-22.25-6.09c-.15-.04-.28-.11-.4-.21l-10.62-9.37c-.33-.29-.43-.75-.25-1.15l18.02-41.35c.07-.16.19-.31.33-.41l12.44-9.03c.1-.07.21-.13.33-.16l23.36-6.18,11.15-5.71c.33-.17.73-.14,1.03.07.3.21.46.58.41.95l-.55,4.02c-.2,1.48.1,3,.85,4.29l2.54,4.37c.05.09.09.19.11.29l5.55,9.35,5.64-9.31c.02-.09.05-.19.11-.27l2.57-4.35c.76-1.28,1.07-2.8.88-4.28l-.52-4.02c-.05-.37.11-.73.42-.95.31-.21.7-.24,1.04-.07l11.1,5.81,23.31,6.38c.12.03.23.09.33.16l12.36,9.13c.14.11.26.25.33.41l17.66,41.5c.17.4.06.86-.26,1.15l-10.7,9.28c-.12.1-.25.17-.4.21l-22.21,5.88-3,.85-1.23,5.28.72,27.46c.01.55-.42,1.01-.96,1.03l-37.53,1.31ZM163.15,285.51l36.53,1.59,36.46-1.28-.7-26.59c0-.09,0-.17.03-.25l1.4-5.97c.08-.35.35-.63.7-.73l3.58-1.02,22-5.82,9.98-8.65-17.27-40.58-11.99-8.86-23.23-6.36c-.07-.02-.14-.05-.2-.08l-9.5-4.97.27,2.12c.25,1.92-.16,3.89-1.15,5.56l-2.38,4.02c-.02.1-.06.2-.11.29l-6.7,11.06c-.18.3-.51.48-.86.48h0c-.35,0-.68-.19-.86-.49l-6.61-11.12c-.06-.1-.1-.2-.12-.31l-2.34-4.03c-.97-1.67-1.36-3.65-1.1-5.57l.29-2.12-9.54,4.89c-.06.03-.13.06-.2.08l-23.28,6.16-12.07,8.76-17.62,40.43,9.9,8.74,21.93,6.01,3.38.59c.4.07.71.37.8.77l1.45,6.43c.02.08.03.17.02.25l-.92,26.59Z" fill="#231f20"/></svg>